<mxfile host="app.diagrams.net" modified="2023-06-15T07:09:08.745Z" agent="Mozilla/5.0 (Macintosh; Intel Mac OS X 10_15_7) AppleWebKit/537.36 (KHTML, like Gecko) Chrome/111.0.0.0 Safari/537.36" version="21.4.0" etag="K3SK3dYSZU9UZQLnJCZ1" type="github">
  <diagram name="Page-1" id="yMRtq_tOVf9KgKA8d2su">
    <mxGraphModel>
      <root>
        <mxCell id="0" />
        <mxCell id="1" parent="0" />
      </root>
    </mxGraphModel>
  </diagram>
</mxfile>
